# xmcd
#
# Track frame offsets:
#  151
#  624
#  16955
#
# Disc length: 438 seconds
#
# Revision: 0
# Processed by: cddbd v1.5.1PL2 Copyright (c) Steve Scherf et al.
# Submitted via: Collectorz.com_Music_Collector 6.9
#
DISCID=1401b403
DTITLE=Johnny Bassett and The Blues Insurgents - Send You Thru 2000
DYEAR=1999
DGENRE=Blues
TTITLE0=Intro - Happy New Year greeting
TTITLE1=Send You Thru 2000
TTITLE2=Party My Blues Away
EXTD=
EXTT0=
EXTT1=
EXTT2=
PLAYORDER=
